<svg width="60" height="44" viewBox="0 0 60 44" fill="none" xmlns="http://www.w3.org/2000/svg">
<path d="M59 30.7954H56V21.9954C56 20.3754 54.2091 19.062 52 19.062H48V11.7287C48 10.1087 46.2091 8.79534 44 8.79534H32.018L37.3 5.78866C39.2227 4.69095 39.568 2.65814 38.0713 1.24812C36.5745 -0.161905 33.8024 -0.415089 31.8796 0.682532C31.4259 0.941583 31.0456 1.26315 30.7601 1.62918L30.2711 2.25691L29.7821 1.62918C28.5706 0.0787209 25.8748 -0.458081 23.7605 0.430264C21.6462 1.31861 20.9144 3.29559 22.1257 4.84605C22.4102 5.21024 22.7887 5.53034 23.2401 5.78857L28.5181 8.79525H16C13.7909 8.79525 12 10.1086 12 11.7286V19.062H8C5.79087 19.062 4 20.3753 4 21.9953V30.7953H1C0.44775 30.7953 0 31.1237 0 31.5287C0.00325 33.5527 2.24 35.193 5 35.1954H27V39.5954H23C20.24 39.5978 18.0033 41.238 18 43.2621C18 43.667 18.4478 43.9954 19 43.9954H41C41.5522 43.9954 42 43.667 42 43.2621C41.9967 41.238 39.76 39.5978 37 39.5954H33V35.1954H55C57.76 35.193 59.9967 33.5527 60 31.5287C60 31.1237 59.5522 30.7954 59 30.7954ZM24.469 4.62706C23.4445 4.04598 23.2306 2.97467 23.985 2.20265C24.4311 1.73524 25.162 1.45831 25.94 1.46198C25.983 1.46198 26.027 1.46198 26.07 1.46198C26.8937 1.48645 27.6409 1.82305 28.043 2.35078L29.4 4.09465C29.6742 4.4462 30.2851 4.56811 30.7646 4.367C30.9194 4.3021 31.0475 4.20805 31.136 4.09465L32.494 2.35298C33.1544 1.50506 34.627 1.21026 35.7834 1.69454C36.086 1.82131 36.3476 1.99465 36.55 2.20265C37.305 2.97412 37.0925 4.04534 36.069 4.62706L30.269 7.93587L24.469 4.62706ZM14 13.1954H15V11.7287H14C14 10.9186 14.8954 10.262 16 10.262H44C45.1046 10.262 46 10.9186 46 11.7287H45V13.1954H46V15.1424C44.6838 14.8003 43.572 14.1316 42.857 13.2518C42.5724 12.9048 41.958 12.7926 41.4846 13.0013C41.3445 13.0631 41.2271 13.1492 41.1429 13.2518C39.4513 15.3348 35.7774 16.0177 32.9369 14.7772C32.0814 14.4035 31.3664 13.8792 30.8569 13.2518C30.5723 12.9048 29.9579 12.7926 29.4845 13.0013C29.3444 13.0631 29.2271 13.1492 29.1429 13.2518C27.4513 15.3348 23.7774 16.0177 20.9369 14.7772C20.0812 14.4035 19.3664 13.8792 18.8569 13.2518C18.5325 12.9048 17.8857 12.8162 17.4125 13.0541C17.3068 13.1073 17.2154 13.1743 17.1429 13.2518C16.4279 14.1316 15.3161 14.8003 13.9999 15.1424V13.1954H14ZM14 16.6699C15.5501 16.3793 16.9444 15.752 18 14.8703C20.9115 17.3004 25.9581 17.5395 29.2719 15.4043C29.53 15.238 29.7733 15.0596 30 14.8703C32.9115 17.3004 37.9581 17.5395 41.2719 15.4043C41.53 15.238 41.7733 15.0596 42 14.8703C43.0556 15.752 44.4499 16.3793 46 16.6699V19.062H14V16.6699ZM6 23.4621H8V21.9954H6C6 21.1853 6.89538 20.5287 8 20.5287H52C53.1046 20.5287 54 21.1853 54 21.9954H52V23.4621H54V25.6621C51.8889 25.6664 49.9322 24.8509 48.857 23.5185C48.5724 23.1715 47.958 23.0593 47.4846 23.268C47.3445 23.3298 47.2271 23.4159 47.1429 23.5185C45.4513 25.6015 41.7774 26.2844 38.9369 25.0439C38.0814 24.6702 37.3664 24.1459 36.8569 23.5185C36.5325 23.1715 35.8857 23.0829 35.4125 23.3208C35.3067 23.374 35.2154 23.441 35.1429 23.5185C33.4513 25.6015 29.7774 26.2844 26.9369 25.0439C26.0812 24.6702 25.3664 24.1459 24.8569 23.5185C24.5325 23.1715 23.8857 23.0829 23.4125 23.3208C23.3068 23.374 23.2154 23.441 23.1429 23.5185C21.4513 25.6015 17.7774 26.2844 14.9369 25.0439C14.0813 24.6702 13.3664 24.1459 12.8569 23.5185C12.5325 23.1715 11.8858 23.0829 11.4125 23.3208C11.3068 23.374 11.2154 23.441 11.1429 23.5185C10.0677 24.8508 8.11112 25.6663 6 25.6621V23.4621ZM6 27.1287C8.29938 27.1353 10.489 26.4087 12 25.1377C14.9115 27.5678 19.9581 27.8069 23.2719 25.6717C23.53 25.5054 23.7733 25.327 24 25.1377C26.9115 27.5678 31.9581 27.8069 35.2719 25.6717C35.53 25.5054 35.7733 25.327 36 25.1377C38.9115 27.5678 43.9581 27.8069 47.2719 25.6717C47.53 25.5054 47.7733 25.327 48 25.1377C49.511 26.4087 51.7007 27.1353 54 27.1287V30.7954H6V27.1287ZM37 41.0621C38.271 41.0632 39.4036 41.6505 39.829 42.5288H20.171C20.5964 41.6505 21.729 41.0632 23 41.0621H37ZM29 39.5955V35.1954H31V39.5955H29ZM55 33.7288H5C3.729 33.7277 2.59637 33.1405 2.171 32.2621H57.829C57.4036 33.1404 56.271 33.7276 55 33.7288Z" fill="#EA00D7"/>
<path d="M25 11.7278H23V13.1945H25V11.7278Z" fill="#EA00D7"/>
<path d="M37 11.7278H35V13.1945H37V11.7278Z" fill="#EA00D7"/>
<path d="M19 21.9945H17V23.4612H19V21.9945Z" fill="#EA00D7"/>
<path d="M31 21.9945H29V23.4612H31V21.9945Z" fill="#EA00D7"/>
<path d="M43 21.9945H41V23.4612H43V21.9945Z" fill="#EA00D7"/>
</svg>
