<svg width="60" height="44" viewBox="0 0 60 44" fill="none" xmlns="http://www.w3.org/2000/svg">
<path d="M58.2803 12.4468C56.5047 12.4176 55.0543 12.2752 53.789 11.3472C52.1206 10.1238 51.2619 8.79801 51.4327 7.70989C51.5626 6.88318 50.6056 6.1865 49.4855 6.28189C47.985 6.4077 46.1663 5.77787 44.4943 4.55173C43.2525 3.64107 42.8529 2.78755 43.0197 1.40251C43.0867 0.845646 42.6565 0.320403 41.9545 0.102211C41.2524 -0.115895 40.4387 0.0226344 39.9397 0.445441C36.7268 3.16721 35.108 7.08178 36.0848 10.5882C30.2239 8.96946 22.9971 9.75569 18.1501 13.3102C13.3327 16.8428 12.219 22.1419 14.4386 26.4629C9.64282 25.7445 4.30786 26.9403 0.607391 29.2894C0.030958 29.6553 -0.158061 30.2521 0.139354 30.7669C0.436769 31.2818 1.15336 31.5984 1.91236 31.548C3.79306 31.4262 4.9553 31.7206 6.20086 32.6339C7.8759 33.8623 8.73803 35.1948 8.56612 36.2896C8.43663 37.1137 9.38958 37.8128 10.5134 37.7176C11.9903 37.5927 13.796 38.2243 15.4673 39.4499C16.7201 40.3688 16.9328 41.4348 16.9727 42.7393C17.0074 43.8722 18.8854 44.4195 19.973 43.6219C23.8163 40.8034 25.2106 36.8832 24.1251 33.4675C25.9675 33.9555 27.949 34.211 29.9994 34.211C39.3894 34.211 46.6509 28.8959 46.6509 21.9997C46.6509 20.4957 46.3024 19.0424 45.6366 17.6911C50.2896 18.4864 55.632 17.4716 59.4838 14.647C60.5741 13.8475 59.8259 12.472 58.2803 12.4468ZM19.7208 39.5454C19.3132 38.8332 18.7214 38.1903 17.9531 37.627C16.0808 36.254 14.0283 35.4177 12.018 35.1883C11.7084 33.7034 10.5658 32.1889 8.68659 30.8108C8.00024 30.3075 7.28974 29.9106 6.53332 29.6147C10.4554 28.4234 15.1721 28.5054 18.1499 30.6892C21.2917 32.9932 21.7783 36.5684 19.7208 39.5454ZM20.6358 28.8664C17.2759 26.4024 16.1796 22.6864 17.3462 19.405L33.5374 31.2788C29.0629 32.1342 23.9957 31.3302 20.6358 28.8664ZM37.0383 30.2002L18.817 16.8377C19.8353 15.6046 21.2239 14.5706 22.9595 13.7996L41.1813 27.1622C40.1648 28.3928 38.7776 29.4277 37.0383 30.2002ZM42.6522 24.5951L26.4603 12.7209C30.9612 11.8602 36.0196 12.6815 39.3628 15.1331C42.7229 17.5973 43.8191 21.3136 42.6522 24.5951ZM41.8486 13.3102C38.8727 11.1278 38.7594 7.67199 40.3803 4.79682C40.7831 5.35163 41.3231 5.87223 42.0084 6.3747C43.8861 7.75174 45.9528 8.58867 47.9823 8.81434C48.2936 10.2918 49.4325 11.7985 51.3031 13.1702C52.0667 13.7302 52.9371 14.1623 53.9012 14.461C49.8459 15.9554 45.032 15.6446 41.8486 13.3102Z" fill="#EA00D7"/>
</svg>
