<svg width="41" height="44" viewBox="0 0 41 44" fill="none" xmlns="http://www.w3.org/2000/svg">
<path d="M11.1818 21C11.1818 20.4473 10.765 20 10.25 20C9.7349 20 9.31812 20.4473 9.31812 21C9.31812 23.626 12.0171 27.2315 12.3247 27.6348C12.5095 27.8751 12.777 28.0001 13.0463 28.0001C13.2538 28.0001 13.4631 27.9258 13.6368 27.7735C14.0345 27.4228 14.0918 26.793 13.766 26.3653C12.767 25.0587 11.1818 22.4473 11.1818 21Z" fill="#EA00D7"/>
<path d="M30.75 20C30.235 20 29.8182 20.4473 29.8182 21C29.8182 22.4424 28.233 25.0567 27.2339 26.3663C26.9081 26.793 26.9663 27.4229 27.364 27.7735C27.5369 27.9258 27.7462 28.0001 27.9546 28.0001C28.2239 28.0001 28.4905 27.8751 28.6753 27.6348C28.9829 27.2315 31.6819 23.6261 31.6819 21C31.6819 20.4473 31.2651 20 30.75 20Z" fill="#EA00D7"/>
<path d="M20.5001 20C19.985 20 19.5682 20.4473 19.5682 21V27C19.5682 27.5528 19.985 28.0001 20.5001 28.0001C21.0151 28.0001 21.4319 27.5528 21.4319 27V21C21.4318 20.4473 21.0151 20 20.5001 20Z" fill="#EA00D7"/>
<path d="M30.75 4.00003C30.1853 4.00003 29.5952 4.08019 28.9824 4.20235C26.9301 1.63491 23.8921 0 20.5 0C17.108 0 14.0699 1.63491 12.0177 4.20225C11.4048 4.08019 10.8147 3.99994 10.2501 3.99994C4.59809 4.00003 0 8.93457 0 15C0 19.1562 2.18395 22.9345 5.61275 24.8027L5.59458 39.915C5.59371 41.0058 5.98857 42.0312 6.70656 42.8027C7.42543 43.5752 8.37999 44 9.39649 44H31.6073C33.7039 44 35.4092 42.1699 35.4092 39.9199V24.7881C38.8252 22.915 41.0001 19.1425 41.0001 15C41 8.93457 36.4019 4.00003 30.75 4.00003ZM33.5455 39.92C33.5455 41.0665 32.6756 42.0001 31.6072 42.0001H9.3964C8.87863 42.0001 8.39179 41.7833 8.02506 41.3898C7.6592 40.9962 7.45723 40.4738 7.4581 39.9172L7.463 36H33.5455V39.92ZM34.1224 23.2315C34.0732 23.2529 34.0268 23.2783 33.9831 23.3086C33.8657 23.3867 33.7693 23.4903 33.6974 23.6094C33.6246 23.7275 33.5754 23.8643 33.5554 24.0107C33.5472 24.0664 33.5445 24.1221 33.5454 24.1787V34H7.46535L7.47732 24.1923C7.4782 24.1376 7.47549 24.082 7.46824 24.0282C7.44823 23.8768 7.39634 23.7362 7.32078 23.6141C7.24975 23.4999 7.15698 23.4003 7.04411 23.3241C6.99773 23.2929 6.94854 23.2655 6.89761 23.243C3.83921 21.8077 1.86361 18.5752 1.86361 15C1.86361 10.0371 5.62551 6 10.25 6C10.4307 6 10.6215 6.02344 10.8087 6.03929C9.86595 7.79766 9.31813 9.8296 9.31813 12C9.31813 12.5528 9.73491 13 10.25 13C10.765 13 11.1818 12.5528 11.1818 12C11.1818 6.48629 15.3623 1.99997 20.5 1.99997C25.6378 1.99997 29.8182 6.48629 29.8182 12C29.8182 12.5528 30.235 13 30.75 13C31.2651 13 31.6819 12.5528 31.6819 12C31.6819 9.8296 31.134 7.79776 30.1913 6.03929C30.3785 6.02344 30.5693 6 30.75 6C35.3746 6 39.1364 10.0372 39.1364 15C39.1364 18.5625 37.169 21.791 34.1224 23.2315Z" fill="#EA00D7"/>
</svg>
