<svg width="60" height="44" viewBox="0 0 60 44" fill="none" xmlns="http://www.w3.org/2000/svg">
<path d="M58.9005 0H7.3822C5.42503 0.00127361 3.54869 0.427225 2.16477 1.18442C0.78084 1.94162 0.00232778 2.96823 0 4.03906V39.9609C0.00232778 41.0318 0.78084 42.0584 2.16477 42.8156C3.54869 43.5728 5.42503 43.9987 7.3822 44H58.9005C59.1921 44 59.4718 43.9366 59.678 43.8238C59.8842 43.711 60 43.558 60 43.3984V0.601562C60 0.442018 59.8842 0.289008 59.678 0.176194C59.4718 0.0633787 59.1921 0 58.9005 0ZM2.19895 39.9609V4.03906C2.20062 3.2872 2.74724 2.5664 3.71893 2.03476C4.69061 1.50311 6.00803 1.20403 7.3822 1.20312H13.4029V42.7969H7.3822C6.00803 42.796 4.69061 42.4969 3.71893 41.9652C2.74724 41.4336 2.20062 40.7128 2.19895 39.9609ZM57.801 42.7969H15.6019V1.20312H57.801V42.7969Z" fill="#EA00D7"/>
<path d="M27.8011 25.0563H28.0631V30.4875C28.0631 30.6471 28.1789 30.8001 28.3851 30.9129C28.5913 31.0257 28.871 31.0891 29.1626 31.0891H44.2411C44.5327 31.0891 44.8124 31.0257 45.0186 30.9129C45.2247 30.8001 45.3406 30.6471 45.3406 30.4875V25.0563H45.6019C47.6015 25.0563 49.5191 24.6217 50.933 23.8481C52.3469 23.0745 53.1412 22.0253 53.1412 20.9313C53.1412 19.8373 52.3469 18.7881 50.933 18.0145C49.5191 17.2409 47.6015 16.8063 45.6019 16.8063H45.1973C44.8434 15.7142 43.7979 14.7252 42.2444 14.0126C40.6908 13.3001 38.7284 12.9096 36.7012 12.9096C34.674 12.9096 32.7116 13.3001 31.158 14.0126C29.6045 14.7252 28.5591 15.7142 28.2051 16.8063H27.8011C25.8016 16.8063 23.8839 17.2409 22.47 18.0145C21.0562 18.7881 20.2618 19.8373 20.2618 20.9313C20.2618 22.0253 21.0562 23.0745 22.47 23.8481C23.8839 24.6217 25.8016 25.0563 27.8011 25.0563ZM43.1416 29.8867H30.2621V27.8094H43.1416V29.8867ZM27.8011 18.0094H29.1833C29.4644 18.0094 29.7348 17.9504 29.939 17.8447C30.1431 17.739 30.2655 17.5944 30.2809 17.4409C30.3699 16.5421 31.0852 15.6962 32.2794 15.0773C33.4737 14.4583 35.0562 14.1133 36.7012 14.1133C38.3462 14.1133 39.9287 14.4583 41.123 15.0773C42.3173 15.6962 43.0325 16.5421 43.1215 17.4409C43.137 17.5944 43.2593 17.739 43.4634 17.8447C43.6676 17.9504 43.938 18.0094 44.2191 18.0094H45.6013C47.0177 18.0094 48.376 18.3173 49.3775 18.8652C50.379 19.4132 50.9416 20.1564 50.9416 20.9313C50.9416 21.7062 50.379 22.4494 49.3775 22.9974C48.376 23.5453 47.0177 23.8532 45.6013 23.8532H44.2411C43.9495 23.8532 43.6699 23.9165 43.4637 24.0294C43.2575 24.1422 43.1416 24.2952 43.1416 24.4547V26.6063H38.4711L40.555 24.4534C40.6914 24.312 40.7196 24.1469 40.6334 23.9942C40.5472 23.8415 40.3537 23.7138 40.0955 23.6392C39.8372 23.5646 39.5353 23.5491 39.2562 23.5963C38.9772 23.6434 38.7438 23.7493 38.6074 23.8906L36.7 25.8641L34.7938 23.8906C34.6574 23.7496 34.4242 23.644 34.1455 23.597C33.8668 23.5501 33.5654 23.5656 33.3076 23.6402C33.0498 23.7148 32.8568 23.8424 32.771 23.9949C32.6851 24.1474 32.7135 24.3123 32.8499 24.4534L34.9326 26.6063H30.2621V24.4547C30.2621 24.2952 30.1462 24.1422 29.94 24.0294C29.7338 23.9165 29.4542 23.8532 29.1626 23.8532H27.8011C26.3848 23.8532 25.0264 23.5453 24.0249 22.9974C23.0234 22.4494 22.4608 21.7062 22.4608 20.9313C22.4608 20.1564 23.0234 19.4132 24.0249 18.8652C25.0264 18.3173 26.3848 18.0094 27.8011 18.0094Z" fill="#EA00D7"/>
<path d="M48.3248 33.9453H25.0787C24.7871 33.9453 24.5075 34.0087 24.3013 34.1215C24.0951 34.2343 23.9792 34.3873 23.9792 34.5469C23.9792 34.7064 24.0951 34.8594 24.3013 34.9722C24.5075 35.0851 24.7871 35.1484 25.0787 35.1484H48.3248C48.6164 35.1484 48.8961 35.0851 49.1022 34.9722C49.3084 34.8594 49.4243 34.7064 49.4243 34.5469C49.4243 34.3873 49.3084 34.2343 49.1022 34.1215C48.8961 34.0087 48.6164 33.9453 48.3248 33.9453Z" fill="#EA00D7"/>
<path d="M41.3089 37.0391H32.094C31.8024 37.0391 31.5227 37.1024 31.3165 37.2153C31.1103 37.3281 30.9945 37.4811 30.9945 37.6406C30.9945 37.8002 31.1103 37.9532 31.3165 38.066C31.5227 38.1788 31.8024 38.2422 32.094 38.2422H41.3089C41.6005 38.2422 41.8801 38.1788 42.0863 38.066C42.2925 37.9532 42.4083 37.8002 42.4083 37.6406C42.4083 37.4811 42.2925 37.3281 42.0863 37.2153C41.8801 37.1024 41.6005 37.0391 41.3089 37.0391Z" fill="#EA00D7"/>
<path d="M24.0579 7.39062H49.3458C49.6374 7.39062 49.9171 7.32725 50.1233 7.21443C50.3294 7.10162 50.4453 6.94861 50.4453 6.78906V3.4375C50.4453 3.27796 50.3294 3.12495 50.1233 3.01213C49.9171 2.89932 49.6374 2.83594 49.3458 2.83594H24.0579C23.7663 2.83594 23.4866 2.89932 23.2804 3.01213C23.0742 3.12495 22.9584 3.27796 22.9584 3.4375V6.78906C22.9584 6.94861 23.0742 7.10162 23.2804 7.21443C23.4866 7.32725 23.7663 7.39062 24.0579 7.39062ZM25.1573 4.03906H48.2463V6.1875H25.1573V4.03906Z" fill="#EA00D7"/>
</svg>
