<svg width="60" height="44" viewBox="0 0 60 44" fill="none" xmlns="http://www.w3.org/2000/svg">
<path d="M29.9996 41.9611C22.8105 41.9611 16.037 39.8176 10.9264 35.9254C5.71335 31.9551 2.84238 26.6475 2.84238 20.9805C2.84238 15.3135 5.71335 10.006 10.9264 6.03563C16.037 2.14351 22.8107 0 29.9996 0C37.1886 0 43.9623 2.14351 49.0728 6.03574C54.2859 10.006 57.1569 15.3136 57.1569 20.9806C57.1569 26.6476 54.2859 31.9551 49.0728 35.9255C43.9624 39.8176 37.1887 41.9611 29.9996 41.9611Z" fill="#4A362E"/>
<path d="M49.073 6.03581C43.9628 2.1438 37.1896 0.000401274 30.001 0.000183105V41.9613C37.1896 41.9611 43.9628 39.8176 49.073 35.9257C54.2861 31.9554 57.1571 26.6478 57.1571 20.9808C57.1571 15.3138 54.2862 10.006 49.073 6.03581Z" fill="#4A362E"/>
<path d="M29.9999 15.8245C30.9194 15.8245 31.8003 15.072 31.7577 14.1883C31.7151 13.3017 30.9854 12.552 29.9999 12.552C29.0805 12.552 28.1996 13.3046 28.2421 14.1883C28.2848 15.0748 29.0145 15.8245 29.9999 15.8245Z" fill="#4A362E"/>
<path d="M29.9999 8.53773C30.9194 8.53773 31.8003 7.78515 31.7577 6.90146C31.7151 6.01493 30.9854 5.2652 29.9999 5.2652C29.0805 5.2652 28.1996 6.01777 28.2421 6.90146C28.2848 7.78799 29.0145 8.53773 29.9999 8.53773Z" fill="#4A362E"/>
<path d="M30.0011 12.552V15.8244C30.9202 15.8238 31.8003 15.0715 31.7578 14.1883C31.7152 13.3021 30.986 12.5527 30.0011 12.552Z" fill="#4A362E"/>
<path d="M30.0011 5.2652V8.53762C30.9202 8.53696 31.8003 7.78472 31.7578 6.90135C31.7152 6.01526 30.986 5.26585 30.0011 5.2652Z" fill="#4A362E"/>
<path d="M30 25.9843L38.6959 22.3567C38.9572 22.2477 39.2437 22.2019 39.5205 22.2168L39.604 42.4919C39.604 42.4919 38.7689 44 37.8515 44H30.0011C30.0008 44 30.0004 44 30 44L28.8281 33.1069L30 25.9843Z" fill="#D9E8FC"/>
<path d="M40.1337 22.3568L49.5474 26.2838C50.3164 26.6046 50.7326 27.3885 50.5395 28.1522L46.8481 42.7389C46.6611 43.4779 45.9526 44 45.137 44H37.8515L39.5205 22.2168C39.7295 22.2285 39.9374 22.2748 40.1337 22.3568Z" fill="#E27FA6"/>
<path d="M48.8285 25.9838L57.5232 22.3566C58.1498 22.0954 58.8818 22.1973 59.3986 22.6176C59.9154 23.0377 60.1222 23.6996 59.9284 24.3123L54.069 42.8261C53.8487 43.5221 53.1623 43.9999 52.3828 43.9999H45.1371L48.8285 25.9838Z" fill="#D9E8FC"/>
<path d="M21.367 12.1812C22.2864 12.1812 23.1673 11.4286 23.1248 10.5449C23.0821 9.65837 22.3524 8.90863 21.367 8.90863C20.4475 8.90863 19.5666 9.6612 19.6091 10.5449C19.6518 11.4314 20.3815 12.1812 21.367 12.1812Z" fill="#4A362E"/>
<path d="M38.633 12.1812C39.5525 12.1812 40.4334 11.4286 40.3908 10.5449C40.3482 9.65837 39.6184 8.90863 38.633 8.90863C37.7136 8.90863 36.8327 9.6612 36.8752 10.5449C36.9179 11.4314 37.6476 12.1812 38.633 12.1812Z" fill="#4A362E"/>
<path d="M29.9999 25.9843L21.304 22.3567C21.0427 22.2477 20.7562 22.2019 20.4794 22.2168L20.3959 42.4919C20.3959 42.4919 21.231 44 22.1484 44H29.9987H29.9999V25.9843Z" fill="#E27FA6"/>
<path d="M19.8663 22.3568L10.4526 26.2838C9.68362 26.6046 9.26737 27.3885 9.46049 28.1522L13.1519 42.7389C13.3389 43.4779 14.0474 44 14.863 44H22.1484L20.4794 22.2168C20.2703 22.2285 20.0626 22.2748 19.8663 22.3568Z" fill="#EBF2FC"/>
<path d="M11.1715 25.9838L2.47682 22.3566C1.85022 22.0954 1.11827 22.1973 0.60147 22.6176C0.084673 23.0377 -0.122163 23.6996 0.0716652 24.3123L5.93104 42.8261C6.15135 43.5221 6.83772 43.9999 7.61725 43.9999H14.863L11.1715 25.9838Z" fill="#E27FA6"/>
</svg>
