<svg width="41" height="45" viewBox="0 0 41 45" fill="none" xmlns="http://www.w3.org/2000/svg">
<path d="M20.5 45C9.19596 45 0 34.9069 0 22.5C0 10.0931 9.19596 0 20.5 0C31.804 0 41 10.0931 41 22.5C41 34.9069 31.804 45 20.5 45ZM20.5 2.8125C10.6088 2.8125 2.5625 11.6438 2.5625 22.5C2.5625 33.3563 10.6088 42.1875 20.5 42.1875C30.3913 42.1875 38.4375 33.3563 38.4375 22.5C38.4375 11.6438 30.3913 2.8125 20.5 2.8125Z" fill="#EA00D7"/>
<path d="M31.1771 19.2187C30.4699 19.2187 29.8959 18.5887 29.8959 17.8125C29.8959 16.7794 29.1288 15.9375 28.1875 15.9375C27.2462 15.9375 26.4792 16.7794 26.4792 17.8125C26.4792 18.5887 25.9052 19.2187 25.1979 19.2187C24.4907 19.2187 23.9167 18.5887 23.9167 17.8125C23.9167 15.2287 25.8334 13.125 28.1875 13.125C30.5416 13.125 32.4583 15.2287 32.4583 17.8125C32.4583 18.5887 31.8843 19.2187 31.1771 19.2187Z" fill="#EA00D7"/>
<path d="M15.8021 19.2187C15.0949 19.2187 14.5209 18.5887 14.5209 17.8125C14.5209 16.7794 13.7538 15.9375 12.8125 15.9375C11.8712 15.9375 11.1042 16.7794 11.1042 17.8125C11.1042 18.5887 10.5302 19.2187 9.82294 19.2187C9.11569 19.2187 8.54169 18.5887 8.54169 17.8125C8.54169 15.2287 10.4584 13.125 12.8125 13.125C15.1666 13.125 17.0834 15.2287 17.0834 17.8125C17.0834 18.5887 16.5094 19.2187 15.8021 19.2187Z" fill="#EA00D7"/>
<path d="M20.5 35.625C15.7577 35.625 11.3638 32.97 8.74666 28.5263C8.36229 27.8738 8.53312 27.0038 9.12762 26.5819C9.72212 26.1581 10.5148 26.3475 10.8992 27C13.0414 30.6394 16.6306 32.8125 20.5 32.8125C24.3694 32.8125 27.9586 30.6394 30.1008 27C30.4852 26.3494 31.2796 26.16 31.8724 26.5819C32.4669 27.0038 32.636 27.8738 32.2533 28.5263C29.6362 32.97 25.2423 35.625 20.5 35.625Z" fill="#EA00D7"/>
<path d="M20.9271 35.6062C20.2198 35.6062 19.6458 34.9762 19.6458 34.2V27.6562C19.6458 27.03 19.4255 26.4469 19.0257 26.0194C18.6123 25.5544 18.0827 25.3125 17.5104 25.3125C16.3334 25.3125 15.375 26.3644 15.375 27.6562V32.2875C15.375 33.0637 14.801 33.6937 14.0937 33.6937C13.3865 33.6937 12.8125 33.0637 12.8125 32.2875V27.6562C12.8125 24.8137 14.9189 22.5 17.5104 22.5C18.7797 22.5 19.9602 23.0437 20.8365 24.03C21.7129 24.9675 22.2083 26.2631 22.2083 27.6562V34.2C22.2083 34.9762 21.6343 35.6062 20.9271 35.6062Z" fill="#EA00D7"/>
</svg>
