<svg width="37" height="12" viewBox="0 0 37 12" fill="none" xmlns="http://www.w3.org/2000/svg">
<path d="M35.5547 4.87499H4.94603L10.0165 1.60199C10.5822 1.23674 10.5844 0.643168 10.0213 0.276184C9.45823 -0.090847 8.54305 -0.092206 7.97729 0.272997L0.425238 5.14799C0.424732 5.14827 0.424371 5.1486 0.423938 5.14888C-0.140385 5.51413 -0.142191 6.10963 0.423793 6.4761C0.424299 6.47638 0.42466 6.47671 0.425094 6.47699L7.97714 11.352C8.54284 11.7171 9.45801 11.7159 10.0212 11.3488C10.5843 10.9818 10.5821 10.3882 10.0163 10.023L4.94603 6.74999H35.5547C36.353 6.74999 37 6.33027 37 5.81249C37 5.29471 36.353 4.87499 35.5547 4.87499Z" fill="#EA00D7"/>
</svg>
